<svg xmlns="http://www.w3.org/2000/svg" viewBox="0 0 32 32" width="32" height="32">
  <defs>
    <linearGradient id="aiGradient" x1="0%" y1="0%" x2="100%" y2="100%">
      <stop offset="0%" style="stop-color:#667eea;stop-opacity:1" />
      <stop offset="100%" style="stop-color:#764ba2;stop-opacity:1" />
    </linearGradient>
  </defs>

  <!-- Background circle -->
  <circle cx="16" cy="16" r="15" fill="url(#aiGradient)" stroke="#fff" stroke-width="1"/>

  <!-- Neural network nodes -->
  <circle cx="8" cy="10" r="2" fill="#fff" opacity="0.9"/>
  <circle cx="16" cy="8" r="2" fill="#fff" opacity="0.9"/>
  <circle cx="24" cy="10" r="2" fill="#fff" opacity="0.9"/>
  <circle cx="12" cy="16" r="2" fill="#fff" opacity="0.9"/>
  <circle cx="20" cy="16" r="2" fill="#fff" opacity="0.9"/>
  <circle cx="8" cy="22" r="2" fill="#fff" opacity="0.9"/>
  <circle cx="16" cy="24" r="2" fill="#fff" opacity="0.9"/>
  <circle cx="24" cy="22" r="2" fill="#fff" opacity="0.9"/>

  <!-- Connections -->
  <line x1="8" y1="10" x2="16" y2="8" stroke="#fff" stroke-width="1" opacity="0.7"/>
  <line x1="16" y1="8" x2="24" y2="10" stroke="#fff" stroke-width="1" opacity="0.7"/>
  <line x1="8" y1="10" x2="12" y2="16" stroke="#fff" stroke-width="1" opacity="0.7"/>
  <line x1="16" y1="8" x2="12" y2="16" stroke="#fff" stroke-width="1" opacity="0.7"/>
  <line x1="16" y1="8" x2="20" y2="16" stroke="#fff" stroke-width="1" opacity="0.7"/>
  <line x1="24" y1="10" x2="20" y2="16" stroke="#fff" stroke-width="1" opacity="0.7"/>
  <line x1="12" y1="16" x2="8" y2="22" stroke="#fff" stroke-width="1" opacity="0.7"/>
  <line x1="12" y1="16" x2="16" y2="24" stroke="#fff" stroke-width="1" opacity="0.7"/>
  <line x1="20" y1="16" x2="16" y2="24" stroke="#fff" stroke-width="1" opacity="0.7"/>
  <line x1="20" y1="16" x2="24" y2="22" stroke="#fff" stroke-width="1" opacity="0.7"/>
</svg>